<?xml version="1.0" encoding="UTF-8"?>
<svg version="1.1" xmlns="http://www.w3.org/2000/svg" width="960" height="960">
<path d="M0 0 C1.23270126 -0.00701431 2.46540253 -0.01402863 3.73545837 -0.02125549 C7.68954127 -0.03865929 11.64354321 -0.04568904 15.59765625 -0.046875 C16.2709623 -0.04731686 16.94426834 -0.04775871 17.6379776 -0.04821396 C37.47615069 -0.05504389 57.00800184 0.19214469 76.66015625 3.203125 C77.85415039 3.37473145 79.04814453 3.54633789 80.27832031 3.72314453 C170.00237453 16.74535162 254.27583534 55.86661174 320.82421875 117.5859375 C323.43009836 119.99081263 326.06922532 122.35103007 328.72265625 124.703125 C336.21735183 131.43871154 343.380671 138.52037085 349.92578125 146.1875 C351.91928206 148.50427121 353.97570013 150.75732484 356.03515625 153.015625 C423.48962116 228.05305828 466.47600883 332.21555849 466.86328125 433.54296875 C466.87029556 434.77567001 466.87730988 436.00837128 466.88453674 437.27842712 C466.90194054 441.23251002 466.90897029 445.18651196 466.91015625 449.140625 C466.91059811 449.81393105 466.91103996 450.48723709 466.91149521 451.18094635 C466.91832514 471.01911944 466.67113656 490.55097059 463.66015625 510.203125 C463.4885498 511.39711914 463.31694336 512.59111328 463.14013672 513.82128906 C451.05122972 597.11483059 416.61922641 674.66384501 362.66015625 739.203125 C362.22509766 739.72455078 361.79003906 740.24597656 361.34179688 740.78320312 C348.80203334 755.76371048 335.590356 770.68089103 320.734375 783.40625 C318.45857907 785.3777493 316.25092958 787.41446895 314.03515625 789.453125 C308.43679152 794.49761803 302.5534598 799.11979572 296.5859375 803.71435547 C294.62263597 805.23213091 292.67219262 806.76537773 290.72265625 808.30078125 C226.98553618 858.18898009 148.93128486 889.04185616 68.66015625 898.203125 C67.91237915 898.29032806 67.16460205 898.37753113 66.39416504 898.46737671 C49.98684919 900.33031716 33.66009631 900.56261614 17.16015625 900.515625 C15.81947847 900.5137018 14.47880056 900.51186127 13.13812256 900.51010132 C-5.86168524 900.4738363 -24.52907834 900.09493758 -43.33984375 897.203125 C-44.55510742 897.02620117 -45.77037109 896.84927734 -47.02246094 896.66699219 C-138.29484537 883.23024909 -221.25488798 843.3951016 -289.33984375 781.203125 C-290.79197266 779.89021484 -290.79197266 779.89021484 -292.2734375 778.55078125 C-300.75333361 770.86434951 -309.05254738 763.03335746 -316.5 754.32421875 C-318.70884629 751.77771442 -320.99304929 749.3071234 -323.27734375 746.828125 C-327.8666767 741.77848471 -332.18303923 736.61313418 -336.33984375 731.203125 C-336.86175293 730.52668945 -337.38366211 729.85025391 -337.92138672 729.15332031 C-351.65207923 711.30075094 -364.2852289 692.83313232 -375.33984375 673.203125 C-375.80068359 672.39359375 -376.26152344 671.5840625 -376.73632812 670.75 C-405.02139539 620.90181736 -422.10148677 566.79118357 -430.33984375 510.203125 C-430.50645508 509.1193457 -430.67306641 508.03556641 -430.84472656 506.91894531 C-436.41780132 469.38434449 -436.08308842 427.68830239 -430.33984375 390.203125 C-430.1682373 389.00913086 -429.99663086 387.81513672 -429.81982422 386.58496094 C-416.79761713 296.86090672 -377.67635701 212.58744591 -315.95703125 146.0390625 C-313.55215612 143.43318289 -311.19193868 140.79405593 -308.83984375 138.140625 C-302.12608915 130.67022185 -295.07031644 123.52906905 -287.42578125 117.0078125 C-284.88887801 114.81296363 -282.43162749 112.5389355 -279.96484375 110.265625 C-274.91520346 105.67629205 -269.74985293 101.35992952 -264.33984375 97.203125 C-263.6634082 96.68121582 -262.98697266 96.15930664 -262.29003906 95.62158203 C-187.88632476 38.39651257 -94.82437137 0.36241786 0 0 Z M-147.33984375 233.203125 C-147.33984375 376.423125 -147.33984375 519.643125 -147.33984375 667.203125 C-39.09984375 667.203125 69.14015625 667.203125 180.66015625 667.203125 C180.66015625 641.793125 180.66015625 616.383125 180.66015625 590.203125 C101.13015625 590.203125 21.60015625 590.203125 -60.33984375 590.203125 C-60.33984375 552.913125 -60.33984375 515.623125 -60.33984375 477.203125 C9.62015625 477.203125 79.58015625 477.203125 151.66015625 477.203125 C151.66015625 452.453125 151.66015625 427.703125 151.66015625 402.203125 C81.70015625 402.203125 11.74015625 402.203125 -60.33984375 402.203125 C-60.33984375 371.513125 -60.33984375 340.823125 -60.33984375 309.203125 C15.89015625 309.203125 92.12015625 309.203125 170.66015625 309.203125 C170.66015625 284.123125 170.66015625 259.043125 170.66015625 233.203125 C65.72015625 233.203125 -39.21984375 233.203125 -147.33984375 233.203125 Z " fill="#3848AA" transform="translate(463.33984375,29.796875)"/>
</svg>
